<svg width="49" height="33" viewBox="0 0 49 33" fill="none" xmlns="http://www.w3.org/2000/svg">
<path fill-rule="evenodd" clip-rule="evenodd" d="M28.668 9.13038C29.5 8.15438 30.06 6.79438 29.908 5.44238C28.708 5.48905 27.2587 6.21705 26.3973 7.19305C25.628 8.05705 24.952 9.44105 25.1347 10.7664C26.4707 10.8677 27.836 10.1077 28.668 9.13038ZM35.1667 22.0251C35.14 22.1051 34.6507 23.665 33.4667 25.273C32.4427 26.665 31.38 28.0504 29.7067 28.0797C28.0627 28.1064 27.5333 27.173 25.6533 27.173C23.7733 27.173 23.1867 28.0504 21.628 28.1064C20.0147 28.1637 18.7827 26.6037 17.7507 25.217C15.6413 22.381 14.0293 17.2051 16.1947 13.7104C16.7346 12.8463 17.4827 12.1314 18.3704 11.6313C19.2582 11.1312 20.2572 10.8618 21.276 10.8477C22.8627 10.821 24.36 11.841 25.3293 11.841C26.3 11.841 28.1187 10.6144 30.032 10.7944C30.832 10.825 33.0813 11.0944 34.5253 13.0597C34.408 13.1264 31.8427 14.5144 31.8693 17.4037C31.904 20.861 35.1307 22.0104 35.1667 22.0251Z" fill="white"/>
</svg>
