<svg width="49" height="33" viewBox="0 0 49 33" fill="none" xmlns="http://www.w3.org/2000/svg">
<g clip-path="url(#clip0_19_722)">
<path d="M40.1187 16.4085C40.1187 15.0975 40.0123 14.1408 39.7821 13.1487H24.8115V19.066H33.5989C33.4218 20.5365 32.4651 22.7511 30.339 24.2392L30.3092 24.4374L35.0427 28.1043L35.3706 28.137C38.3824 25.3555 40.1187 21.2629 40.1187 16.4085Z" fill="#4285F4"/>
<path d="M24.8114 31.9992C29.1165 31.9992 32.7307 30.5818 35.3706 28.137L30.339 24.2392C28.9926 25.1782 27.1854 25.8337 24.8114 25.8337C20.5949 25.8337 17.0161 23.0523 15.7404 19.2078L15.5534 19.2236L10.6315 23.0327L10.5672 23.2117C13.1892 28.4203 18.5751 31.9992 24.8114 31.9992Z" fill="#34A853"/>
<path d="M15.7404 19.2079C15.4038 18.2157 15.209 17.1526 15.209 16.0543C15.209 14.9558 15.4038 13.8928 15.7227 12.9007L15.7138 12.6894L10.7302 8.81909L10.5672 8.89665C9.48652 11.0581 8.86642 13.4854 8.86642 16.0543C8.86642 18.6232 9.48652 21.0503 10.5672 23.2118L15.7404 19.2079Z" fill="#FBBC05"/>
<path d="M24.8114 6.27451C27.8055 6.27451 29.8252 7.56782 30.9768 8.64861L35.4768 4.25484C32.7131 1.68592 29.1165 0.109131 24.8114 0.109131C18.5751 0.109131 13.1892 3.68788 10.5672 8.89655L15.7227 12.9006C17.0161 9.05606 20.5949 6.27451 24.8114 6.27451Z" fill="#EB4335"/>
</g>
<defs>
<clipPath id="clip0_19_722">
<rect width="48" height="32" fill="white" transform="translate(0.5 0.109131)"/>
</clipPath>
</defs>
</svg>
