<svg width="33" height="33" viewBox="0 0 33 33" fill="none" xmlns="http://www.w3.org/2000/svg">
<path d="M16.6568 0.609131L16.0318 3.45638L16.6568 6.58426C22.1846 6.58426 26.6817 11.0814 26.6817 16.6091C26.6817 22.1369 22.1846 26.634 16.6568 26.634L16.0318 29.2L16.6568 32.6091C25.4934 32.6091 32.6568 25.4457 32.6568 16.6091C32.6568 7.77257 25.4934 0.609131 16.6568 0.609131Z" fill="#29CCCC"/>
<path d="M22.6983 16.6091C22.6983 13.2725 19.9934 10.5676 16.6568 10.5676L16.0318 16.6091L16.6568 22.6506C19.9934 22.6506 22.6983 19.9458 22.6983 16.6091Z" fill="#282866"/>
<path d="M6.63186 26.634V16.6091C6.63186 11.0814 11.129 6.58426 16.6567 6.58426V0.609131C7.82018 0.609131 0.656738 7.77257 0.656738 16.6091V32.6091H16.6567V26.634H6.63186Z" fill="#2EE6E6"/>
<path d="M10.6153 16.6091C10.6153 19.9458 13.3202 22.6506 16.6568 22.6506V10.5676C13.3202 10.5676 10.6153 13.2725 10.6153 16.6091Z" fill="#4A4080"/>
</svg>
