<svg width="49" height="33" viewBox="0 0 49 33" fill="none" xmlns="http://www.w3.org/2000/svg">
<path d="M10.5 16.1091C10.5 8.3758 16.768 2.10913 24.5 2.10913C32.2333 2.10913 38.5 8.37713 38.5 16.1091C38.5 23.8411 32.2333 30.1091 24.5 30.1091C16.7667 30.1091 10.5 23.8398 10.5 16.1091ZM32.6333 18.4878C32.7082 18.3657 32.7583 18.23 32.7807 18.0885C32.8031 17.947 32.7975 17.8025 32.764 17.6632C32.7306 17.5239 32.6701 17.3926 32.5859 17.2767C32.5017 17.1608 32.3955 17.0626 32.2733 16.9878C27.9533 14.3318 21.632 13.5851 16.548 15.1278C16.2876 15.2253 16.0741 15.4183 15.951 15.6676C15.8278 15.9169 15.8043 16.2037 15.8851 16.4697C15.966 16.7358 16.1452 16.961 16.3862 17.0996C16.6273 17.2382 16.9121 17.2797 17.1827 17.2158C21.6333 15.8651 27.3693 16.5358 31.132 18.8491C31.2542 18.9242 31.39 18.9745 31.5316 18.997C31.6732 19.0195 31.8179 19.0139 31.9573 18.9805C32.0968 18.947 32.2283 18.8864 32.3443 18.8021C32.4603 18.7178 32.5585 18.6101 32.6333 18.4878ZM29.72 22.5905C29.9177 22.7112 30.1552 22.7485 30.3804 22.6941C30.4919 22.6672 30.597 22.6186 30.6897 22.551C30.7824 22.4835 30.8609 22.3983 30.9207 22.3005C30.9805 22.2026 31.0204 22.0939 31.0382 21.9806C31.056 21.8673 31.0513 21.7516 31.0243 21.6401C30.9974 21.5286 30.9488 21.4235 30.8812 21.3308C30.8137 21.2381 30.7285 21.1596 30.6307 21.0998C26.9413 18.8451 22.3667 18.3198 17.0333 19.5398C16.9216 19.5653 16.816 19.6125 16.7226 19.6788C16.6291 19.7451 16.5496 19.8291 16.4886 19.9261C16.4277 20.0231 16.3864 20.1312 16.3672 20.2442C16.348 20.3571 16.3512 20.4728 16.3767 20.5845C16.4021 20.6962 16.4494 20.8018 16.5157 20.8952C16.5819 20.9887 16.666 21.0682 16.763 21.1292C16.86 21.1901 16.9681 21.2314 17.081 21.2506C17.194 21.2698 17.3096 21.2666 17.4213 21.2411C22.2947 20.1278 26.4333 20.5825 29.72 22.5905ZM16.516 12.8998C20.824 11.5931 28.268 11.8385 32.7813 14.5185C32.9292 14.6062 33.0929 14.6639 33.2631 14.6884C33.4333 14.7128 33.6066 14.7035 33.7732 14.661C33.9398 14.6185 34.0964 14.5436 34.234 14.4405C34.3716 14.3375 34.4876 14.2083 34.5753 14.0605C34.6631 13.9126 34.7208 13.7489 34.7453 13.5787C34.7697 13.4085 34.7604 13.2352 34.7179 13.0686C34.6754 12.902 34.6004 12.7454 34.4974 12.6078C34.3943 12.4702 34.2652 12.3542 34.1173 12.2665C28.9227 9.18246 20.7 8.89313 15.7573 10.3945C15.4249 10.4952 15.1462 10.7239 14.9824 11.0303C14.8186 11.3366 14.7832 11.6954 14.884 12.0278C14.9848 12.3602 15.2135 12.639 15.5198 12.8027C15.8261 12.9665 16.1849 13.0019 16.5173 12.9011L16.516 12.8998Z" fill="white"/>
</svg>
